<svg width="25" height="25" viewBox="0 0 25 25" fill="none" xmlns="http://www.w3.org/2000/svg">
<g clip-path="url(#clip0_2005_177)">
<rect x="0.525345" y="0.575745" width="24.2424" height="24.2424" fill="#EFE2F9"/>
<path d="M11.0177 6.08878C8.53372 6.57358 6.53202 8.57027 6.04221 11.0468C5.11758 15.7199 9.3334 19.2035 12.5096 18.7112C13.5392 18.5512 14.044 17.3467 13.5717 16.4196C12.9944 15.285 13.8191 13.9606 15.0936 13.9606H17.0853C17.98 13.9606 18.7047 13.2209 18.7072 12.3287C18.6947 8.39034 15.1111 5.2916 11.0177 6.08878ZM8.31131 13.9606C7.86898 13.9606 7.51163 13.6032 7.51163 13.1609C7.51163 12.7186 7.86898 12.3612 8.31131 12.3612C8.75363 12.3612 9.11099 12.7186 9.11099 13.1609C9.11099 13.6032 8.75363 13.9606 8.31131 13.9606ZM9.11099 10.7619C8.66867 10.7619 8.31131 10.4045 8.31131 9.96221C8.31131 9.51989 8.66867 9.16253 9.11099 9.16253C9.55332 9.16253 9.91067 9.51989 9.91067 9.96221C9.91067 10.4045 9.55332 10.7619 9.11099 10.7619ZM12.3097 9.16253C11.8674 9.16253 11.51 8.80518 11.51 8.36286C11.51 7.92053 11.8674 7.56318 12.3097 7.56318C12.752 7.56318 13.1094 7.92053 13.1094 8.36286C13.1094 8.80518 12.752 9.16253 12.3097 9.16253ZM15.5084 10.7619C15.0661 10.7619 14.7088 10.4045 14.7088 9.96221C14.7088 9.51989 15.0661 9.16253 15.5084 9.16253C15.9508 9.16253 16.3081 9.51989 16.3081 9.96221C16.3081 10.4045 15.9508 10.7619 15.5084 10.7619Z" fill="#9251F7"/>
</g>
<defs>
<clipPath id="clip0_2005_177">
<rect x="0.525345" y="0.575745" width="24.2424" height="24.2424" rx="12.1212" fill="white"/>
</clipPath>
</defs>
</svg>
