<svg width="33" height="33" viewBox="0 0 33 33" fill="none" xmlns="http://www.w3.org/2000/svg">
<rect y="0.131317" width="32.3232" height="32.3232" rx="16.1616" fill="#EA4C89"/>
<path d="M16.1615 24.7104C11.5127 24.7104 7.74402 20.9417 7.74402 16.2929C7.74402 11.644 11.5127 7.87537 16.1615 7.87537C20.8104 7.87537 24.579 11.644 24.579 16.2929C24.5739 20.9396 20.8083 24.7053 16.1615 24.7104ZM12.0538 21.8021L12.0496 21.8106C13.9713 23.2502 16.5061 23.58 18.7322 22.6801C18.4132 20.964 17.9401 19.2801 17.3189 17.6489C15.8921 18.1464 14.5876 18.9421 13.4923 19.9831C12.9525 20.4942 12.4852 21.0768 12.1034 21.7146L12.0976 21.7239V21.7154L12.0824 21.7449L12.0723 21.7617L12.0664 21.7727L12.0521 21.803L12.0538 21.8021ZM20.1843 17.1725C19.7698 17.1731 19.3559 17.2012 18.9452 17.2567C19.4816 18.7554 19.9036 20.2927 20.2078 21.8552C21.6383 20.824 22.6106 19.2759 22.9183 17.5395C22.0277 17.2938 21.1081 17.1695 20.1843 17.17V17.1725ZM9.27348 16.255V16.3021C9.27501 17.9238 9.84884 19.493 10.8939 20.7331C12.2476 18.6418 14.2501 17.0524 16.5942 16.2087L16.6944 16.1801C16.5454 15.851 16.4056 15.5572 16.2659 15.2828C14.0201 15.9125 11.7002 16.2394 9.36776 16.255H9.27348ZM19.9208 15.7449C20.9653 15.7487 22.0074 15.8439 23.0353 16.0294C22.9817 14.6055 22.4837 13.2341 21.611 12.1077C20.5927 13.2465 19.3252 14.1349 17.9073 14.7036L17.9317 14.6935L17.9056 14.7045C18.0563 15.0185 18.1885 15.3122 18.2987 15.574C18.3248 15.6363 18.3467 15.6902 18.3669 15.7424L18.4014 15.8265C18.9059 15.7706 19.4132 15.7433 19.9208 15.7449ZM13.1119 10.1287C11.2813 11.0322 9.94619 12.7016 9.46708 14.686C11.4287 14.6557 13.3809 14.4078 15.2878 13.9469H15.2987H15.3114L15.3198 13.936L15.3652 13.925H15.3703L15.404 13.9183H15.4115H15.4174L15.4351 13.9132L15.4688 13.9048L15.4881 13.8964L15.5066 13.8914H15.5151H15.5235C14.4014 11.9158 13.2398 10.3055 13.111 10.1287H13.1119ZM16.1615 9.42332C15.7007 9.42218 15.2409 9.46588 14.7886 9.55382C15.6705 10.7757 16.4797 12.0484 17.212 13.3653C18.5236 12.8981 19.6933 12.1023 20.6093 11.0538C19.3658 10.0021 17.7902 9.42453 16.1615 9.42332Z" fill="white"/>
</svg>
