<svg width="33" height="33" viewBox="0 0 33 33" fill="none" xmlns="http://www.w3.org/2000/svg">
<rect y="0.0909119" width="32.3232" height="32.3232" rx="16.1616" fill="url(#paint0_radial_1_5048)"/>
<rect y="0.0909119" width="32.3232" height="32.3232" rx="16.1616" fill="url(#paint1_radial_1_5048)" fill-opacity="0.2"/>
<path d="M12.7954 16.2529C12.7954 14.3934 14.3024 12.8855 16.162 12.8855C18.0215 12.8855 19.5294 14.3934 19.5294 16.2529C19.5294 18.1125 18.0215 19.6203 16.162 19.6203C14.3024 19.6203 12.7954 18.1125 12.7954 16.2529ZM10.975 16.2529C10.975 19.1177 13.2972 21.4399 16.162 21.4399C19.0267 21.4399 21.3489 19.1177 21.3489 16.2529C21.3489 13.3881 19.0267 11.0659 16.162 11.0659C13.2972 11.0659 10.9751 13.388 10.9751 16.2529H10.975ZM20.3422 10.8603C20.3421 11.1 20.4131 11.3344 20.5462 11.5338C20.6793 11.7332 20.8686 11.8886 21.09 11.9805C21.3115 12.0723 21.5552 12.0964 21.7903 12.0497C22.0255 12.0031 22.2415 11.8877 22.4111 11.7182C22.5807 11.5488 22.6963 11.3328 22.7431 11.0977C22.79 10.8626 22.7661 10.6189 22.6744 10.3973C22.5828 10.1758 22.4275 9.98643 22.2282 9.85316C22.0289 9.71988 21.7946 9.6487 21.5548 9.6486H21.5543C21.233 9.64875 20.9248 9.77644 20.6975 10.0036C20.4703 10.2308 20.3424 10.5389 20.3422 10.8603ZM12.081 24.4753C11.0961 24.4304 10.5608 24.2664 10.2051 24.1278C9.7335 23.9442 9.397 23.7255 9.04321 23.3722C8.68942 23.0189 8.47042 22.6827 8.28763 22.2111C8.14895 21.8556 7.98491 21.3201 7.94014 20.3353C7.89117 19.2705 7.88139 18.9506 7.88139 16.2531C7.88139 13.5555 7.89197 13.2365 7.94014 12.1709C7.98499 11.186 8.15025 10.6516 8.28763 10.295C8.47123 9.82339 8.6899 9.4869 9.04321 9.1331C9.39652 8.77931 9.73269 8.56031 10.2051 8.37752C10.5607 8.23885 11.0961 8.0748 12.081 8.03003C13.1458 7.98106 13.4656 7.97128 16.162 7.97128C18.8583 7.97128 19.1785 7.9817 20.2441 8.03019C21.229 8.07504 21.7634 8.2403 22.12 8.37768C22.5916 8.56048 22.9281 8.77996 23.2819 9.13327C23.6357 9.48657 23.8539 9.82356 24.0375 10.2952C24.1762 10.6507 24.3402 11.1862 24.385 12.171C24.434 13.2367 24.4437 13.5557 24.4437 16.2532C24.4437 18.9508 24.434 19.2698 24.385 20.3354C24.3401 21.3203 24.1753 21.8556 24.0375 22.2113C23.8539 22.6829 23.6352 23.0194 23.2819 23.3724C22.9286 23.7254 22.5916 23.9444 22.12 24.128C21.7644 24.2666 21.229 24.4307 20.2441 24.4755C19.1794 24.5244 18.8595 24.5342 16.162 24.5342C13.4644 24.5342 13.1454 24.5244 12.081 24.4755V24.4753ZM11.9974 6.21266C10.922 6.26164 10.1872 6.43215 9.54545 6.68185C8.88127 6.93972 8.31825 7.28568 7.75605 7.84699C7.19384 8.40831 6.84878 8.9714 6.59091 9.6364C6.3412 10.2785 6.17069 11.0129 6.12172 12.0883C6.07194 13.1653 6.06055 13.5097 6.06055 16.2529C6.06055 18.9961 6.07194 19.3405 6.12172 20.4175C6.17069 21.493 6.3412 22.2273 6.59091 22.8694C6.84878 23.5336 7.19393 24.0977 7.75605 24.6588C8.31817 25.2199 8.88046 25.5654 9.54545 25.824C10.1884 26.0737 10.922 26.2442 11.9974 26.2931C13.075 26.3421 13.4187 26.3543 16.162 26.3543C18.9052 26.3543 19.2495 26.3429 20.3266 26.2931C21.402 26.2442 22.1363 26.0737 22.7785 25.824C23.4427 25.5654 24.0057 25.2201 24.5679 24.6588C25.1301 24.0975 25.4744 23.5336 25.733 22.8694C25.9827 22.2273 26.154 21.4929 26.2022 20.4175C26.2512 19.3397 26.2626 18.9961 26.2626 16.2529C26.2626 13.5097 26.2512 13.1653 26.2022 12.0883C26.1532 11.0129 25.9827 10.2781 25.733 9.6364C25.4744 8.97221 25.1292 8.4092 24.5679 7.84699C24.0066 7.28479 23.4427 6.93972 22.7793 6.68185C22.1363 6.43215 21.4019 6.26083 20.3274 6.21266C19.2502 6.16345 18.906 6.15149 16.1632 6.15149C13.4204 6.15149 13.0754 6.16288 11.9978 6.21266" fill="white"/>
<defs>
<radialGradient id="paint0_radial_1_5048" cx="0" cy="0" r="1" gradientUnits="userSpaceOnUse" gradientTransform="translate(2.09193 31.706) scale(41.0385)">
<stop offset="0.09" stop-color="#FA8F21"/>
<stop offset="0.78" stop-color="#D82D7E"/>
</radialGradient>
<radialGradient id="paint1_radial_1_5048" cx="0" cy="0" r="1" gradientUnits="userSpaceOnUse" gradientTransform="translate(16.1616 31.404) scale(25.2525)">
<stop offset="0.713542" stop-color="#8C3AAA" stop-opacity="0"/>
<stop offset="1" stop-color="#8C3AAA"/>
</radialGradient>
</defs>
</svg>
