<svg width="33" height="33" viewBox="0 0 33 33" fill="none" xmlns="http://www.w3.org/2000/svg">
<g clip-path="url(#clip0_1_5020)">
<rect y="0.515137" width="32.3232" height="32.3232" rx="16.1616" fill="#E2E6EE"/>
<path d="M13.186 23.8611C11.4838 23.8611 9.94927 22.8358 9.29778 21.2632C8.64628 19.6907 9.00614 17.8805 10.2096 16.6767L11.9958 14.8905L13.186 16.0808L11.4006 17.8661C10.7626 18.5041 10.5135 19.434 10.747 20.3055C10.9805 21.1771 11.6613 21.8578 12.5328 22.0913C13.4043 22.3248 14.3342 22.0757 14.9722 21.4377L16.7575 19.6523L17.9478 20.8434L16.1624 22.6288C15.3746 23.4205 14.3029 23.8642 13.186 23.8611ZM13.7811 20.2474L12.5909 19.0572L18.5429 13.1052L19.7331 14.2954L13.782 20.2466L13.7811 20.2474ZM20.3291 18.4621L19.138 17.2719L20.9234 15.4865C21.5701 14.8504 21.8259 13.9164 21.5936 13.0395C21.3613 12.1627 20.6766 11.4778 19.7998 11.2453C18.923 11.0128 17.9889 11.2684 17.3527 11.915L15.5665 13.7003L14.3762 12.5101L16.1624 10.7239C17.8081 9.09253 20.4629 9.09835 22.1014 10.7369C23.74 12.3754 23.7458 15.0302 22.1144 16.6759L20.3291 18.4613V18.4621Z" fill="#79819A"/>
</g>
<defs>
<clipPath id="clip0_1_5020">
<rect y="0.515137" width="32.3232" height="32.3232" rx="16.1616" fill="white"/>
</clipPath>
</defs>
</svg>
