<svg width="33" height="34" viewBox="0 0 33 34" fill="none" xmlns="http://www.w3.org/2000/svg">
<g clip-path="url(#clip0_1_5036)">
<rect y="0.797974" width="32.3232" height="32.3232" rx="16.1616" fill="#E2E6EE"/>
<path d="M16.1615 24.5354C15.0984 23.6285 14.1129 22.6343 13.2154 21.5631C11.8686 19.9546 10.2693 17.5589 10.2693 15.2761C10.2681 12.8919 11.7038 10.7419 13.9066 9.82947C16.1093 8.91702 18.6448 9.42193 20.3299 11.1086C21.438 12.2118 22.0588 13.7125 22.0538 15.2761C22.0538 17.5589 20.4545 19.9546 19.1077 21.5631C18.2102 22.6343 17.2247 23.6285 16.1615 24.5354ZM16.1615 12.7509C15.2594 12.7509 14.4257 13.2322 13.9746 14.0135C13.5235 14.7948 13.5235 15.7574 13.9746 16.5387C14.4257 17.32 15.2594 17.8014 16.1615 17.8014C17.5562 17.8014 18.6868 16.6708 18.6868 15.2761C18.6868 13.8814 17.5562 12.7509 16.1615 12.7509Z" fill="#79819A"/>
</g>
<defs>
<clipPath id="clip0_1_5036">
<rect y="0.797974" width="32.3232" height="32.3232" rx="16.1616" fill="white"/>
</clipPath>
</defs>
</svg>
