<svg width="33" height="34" viewBox="0 0 33 34" fill="none" xmlns="http://www.w3.org/2000/svg">
<g clip-path="url(#clip0_1_5028)">
<rect y="0.797974" width="32.3232" height="32.3232" rx="16.1616" fill="#E2E6EE"/>
<path d="M22.0516 23.6936C14.8701 23.7038 9.41982 18.1881 9.4275 11.0695C9.4275 10.6046 9.80436 10.2256 10.2692 10.2256H12.4909C12.9081 10.2256 13.2624 10.5321 13.3237 10.9447C13.4705 11.9337 13.7584 12.8964 14.1787 13.8036L14.2652 13.9903C14.3855 14.2499 14.304 14.5584 14.0712 14.7247C13.3831 15.216 13.1202 16.205 13.6562 16.9767C14.3288 17.9452 15.1767 18.7929 16.1449 19.4652C16.9166 20.001 17.9054 19.7381 18.3968 19.0502C18.5632 18.8173 18.8718 18.7357 19.1315 18.856L19.3174 18.9421C20.2246 19.3624 21.1875 19.6503 22.1765 19.7971C22.5891 19.8583 22.8955 20.2127 22.8955 20.6299V22.8518C22.8955 23.3167 22.5177 23.6936 22.0528 23.6936L22.0516 23.6936Z" fill="#79819A"/>
</g>
<defs>
<clipPath id="clip0_1_5028">
<rect y="0.797974" width="32.3232" height="32.3232" rx="16.1616" fill="white"/>
</clipPath>
</defs>
</svg>
